<?xml version="1.0" encoding="UTF-8"?>
<svg xmlns="http://www.w3.org/2000/svg" version="1.2" viewBox="0 0 830 236" width="280" height="80">
  <style>.A{fill:#e94f3d} .B{fill:#435362}</style>
  <path d="M110.3 181.7H14.1L59.3.5h45.2L91.9 51h51l-10.6 42.3H81.8l-13.2 53.2h8.2l11.3-45.2h42.2zM247.2 50.8l-46 184.7h-96l11.4-45.7h50.8l2-8h-50.8l33.2-131h41.7l-23.9 95.7h8.3l23.8-95.7z" class="A"></path>
  <path d="M260.1.5 249.5 43H103.2L113.8.5zm-151.8 189-11.4 46H.7l11.4-46z" class="A"></path>
  <path fill-rule="evenodd" d="M704.3 134.7H665l-6.4 36.3h-21.2l13-73.9c3.1-17.7 20.1-32.1 37.8-32.1h49.6l-18.7 106h-21.2zm3.8-21.2 4.8-27.2h-24.4c-8.3 0-16.1 6.7-17.6 14.9l-2.2 12.3z" class="B"></path>
  <path d="m367.7 138.9 13-73.9h75.7l-3.7 21.2h-54.5l-3.8 21.2h54.5l-3.7 21.2h-54.5l-1.1 6.2c-1.4 8.3 4.1 15 12.3 15h39.6l-3.8 21.2h-43.6c-17.7 0-29.6-14.4-26.4-32.1z" class="B"></path>
  <path fill-rule="evenodd" d="M475.1 65h21.2l-18.7 106h-21.2zm35.2 106H534l-17.2-53 35.9-53H529l-35.8 53z" class="B"></path>
  <path d="M309.3 86.2H279l3.7-21.2h81.8l-3.7 21.2h-30.3L315.6 171h-21.3zM597.8 107l28.4-42h23.7l-46.1 68-6.7 38h-21.2l6.7-38-22-68h23.6zm174.6 42.8 42.9.1-3.7 21.1h-77.2l35.4-52.3 1.3-2.2 20.5-30.3-42.9-.1 3.8-21.1h77.1l-36.8 54.5h.1z" class="B"></path>
</svg>
